<?xml version="1.0" encoding="UTF-8"?><svg id="a" xmlns="http://www.w3.org/2000/svg" xmlns:xlink="http://www.w3.org/1999/xlink" viewBox="0 0 788.26 338.12"><defs><linearGradient id="c" x1="23.21" y1="189.06" x2="240.94" y2="189.06" gradientUnits="userSpaceOnUse"><stop offset="0" stop-color="#3ddeed"/><stop offset="1" stop-color="#3ddeed" stop-opacity="0"/></linearGradient><linearGradient id="d" x1="285.26" y1="189.06" x2="502.99" y2="189.06" gradientUnits="userSpaceOnUse"><stop offset="0" stop-color="#00bf11"/><stop offset="1" stop-color="#3ddeed" stop-opacity="0"/></linearGradient><linearGradient id="e" x1="540.79" y1="189.06" x2="758.52" y2="189.06" gradientUnits="userSpaceOnUse"><stop offset="0" stop-color="#ff151b"/><stop offset="1" stop-color="#3ddeed" stop-opacity="0"/></linearGradient></defs><rect x=".5" y=".5" width="787.26" height="337.12" rx="20" ry="20" style="fill:#fff; stroke:#000; stroke-miterlimit:10;"/><g><path d="M323.87,48.28c-1.54,0-2.92-.2-4.14-.59-1.22-.4-2.45-.94-3.67-1.64,.17-.94,.28-1.88,.32-2.83,.05-.95,.07-1.81,.07-2.57,.41-.12,.85-.2,1.33-.25,.48-.05,.95-.07,1.4-.07,.1,1.32,.31,2.41,.63,3.28,.32,.86,.84,1.51,1.55,1.93,.71,.42,1.64,.63,2.79,.63,1.51,0,2.6-.33,3.26-.99,.66-.66,.99-1.43,.99-2.32s-.29-1.67-.86-2.29c-.58-.61-1.31-1.15-2.21-1.6-.9-.46-1.85-.91-2.86-1.37-1.01-.46-1.96-1-2.86-1.62s-1.64-1.4-2.21-2.34-.86-2.11-.86-3.53c0-1.51,.33-2.77,.99-3.78,.66-1.01,1.57-1.76,2.74-2.27,1.16-.5,2.5-.76,4.01-.76,.86,0,1.7,.07,2.52,.22,.82,.14,1.57,.34,2.27,.58,.7,.24,1.25,.5,1.66,.79,0,.82,.02,1.69,.05,2.63,.04,.94,.1,1.72,.2,2.34-.34,.17-.76,.29-1.28,.38-.52,.08-.99,.13-1.42,.13-.24-1.37-.55-2.41-.92-3.13-.37-.72-.83-1.22-1.39-1.49-.55-.28-1.18-.41-1.87-.41-1.1,0-1.99,.26-2.65,.79-.66,.53-.99,1.28-.99,2.27s.29,1.76,.86,2.39c.58,.64,1.33,1.19,2.25,1.66,.92,.47,1.9,.94,2.93,1.42,1.03,.48,2.01,1.03,2.93,1.64,.92,.61,1.67,1.37,2.25,2.29,.58,.91,.86,2.05,.86,3.42s-.31,2.51-.94,3.58c-.62,1.07-1.57,1.92-2.84,2.56-1.27,.64-2.9,.95-4.9,.95Z"/><path d="M353.53,40.61h-2.84l-6.59-13.03c-.38-.77-.76-1.31-1.13-1.62-.37-.31-.85-.48-1.42-.5-.1-.31-.16-.62-.2-.92-.04-.3-.05-.63-.05-.99,.41,0,.88,0,1.4,.02,.53,.01,1.06,.02,1.6,.04,.54,.01,1.04,.02,1.49,.02h1.67c.66,0,1.31,0,1.96-.02,.65-.01,1.18-.03,1.58-.05,0,.38-.02,.71-.05,.97-.04,.26-.09,.55-.16,.86-.86,.1-1.34,.37-1.44,.83-.1,.46,.08,1.18,.54,2.16,.55,1.08,1.16,2.35,1.82,3.8,.66,1.45,1.31,2.96,1.96,4.52h-.25c.7-1.61,1.35-3.08,1.96-4.43s1.18-2.54,1.71-3.6c.53-1.13,.71-1.92,.54-2.38-.17-.46-.68-.73-1.55-.83-.07-.31-.14-.61-.2-.9-.06-.29-.09-.62-.09-1.01,.5,.02,1.08,.04,1.73,.05,.65,.01,1.27,.02,1.87,.02,.55,0,1.1,0,1.66-.02,.55-.01,1.06-.03,1.51-.05,0,.36-.02,.68-.05,.97s-.08,.58-.13,.86c-.6,.14-1.15,.48-1.66,1.01-.5,.53-1.06,1.4-1.66,2.63l-5.54,11.59Zm.86-2.12v3.2c0,1.22,.07,2.14,.2,2.74,.13,.6,.41,1,.85,1.21,.43,.2,1.09,.37,1.98,.49,.1,.31,.16,.62,.2,.92,.04,.3,.05,.64,.05,1.03-.86-.02-1.79-.05-2.77-.07-.98-.02-1.92-.04-2.81-.04-.65,0-1.33,0-2.05,.02-.72,.01-1.4,.02-2.05,.02s-1.21,.01-1.69,.04c.02-.34,.05-.67,.09-1.01,.04-.34,.1-.64,.2-.9,.96-.1,1.67-.23,2.12-.41,.46-.18,.75-.55,.88-1.12,.13-.56,.2-1.43,.2-2.61v-3.49h4.61Z"/><path d="M379.56,48.28c-1.54,0-2.92-.2-4.14-.59-1.22-.4-2.45-.94-3.67-1.64,.17-.94,.28-1.88,.32-2.83,.05-.95,.07-1.81,.07-2.57,.41-.12,.85-.2,1.33-.25,.48-.05,.95-.07,1.4-.07,.1,1.32,.31,2.41,.63,3.28,.32,.86,.84,1.51,1.55,1.93,.71,.42,1.64,.63,2.79,.63,1.51,0,2.6-.33,3.26-.99,.66-.66,.99-1.43,.99-2.32s-.29-1.67-.86-2.29c-.58-.61-1.31-1.15-2.21-1.6-.9-.46-1.85-.91-2.86-1.37-1.01-.46-1.96-1-2.86-1.62s-1.64-1.4-2.21-2.34-.86-2.11-.86-3.53c0-1.51,.33-2.77,.99-3.78,.66-1.01,1.57-1.76,2.74-2.27,1.16-.5,2.5-.76,4.01-.76,.86,0,1.7,.07,2.52,.22,.82,.14,1.57,.34,2.27,.58,.7,.24,1.25,.5,1.66,.79,0,.82,.02,1.69,.05,2.63,.04,.94,.1,1.72,.2,2.34-.34,.17-.76,.29-1.28,.38-.52,.08-.99,.13-1.42,.13-.24-1.37-.55-2.41-.92-3.13-.37-.72-.83-1.22-1.39-1.49-.55-.28-1.18-.41-1.87-.41-1.1,0-1.99,.26-2.65,.79-.66,.53-.99,1.28-.99,2.27s.29,1.76,.86,2.39c.58,.64,1.33,1.19,2.25,1.66,.92,.47,1.9,.94,2.93,1.42,1.03,.48,2.01,1.03,2.93,1.64,.92,.61,1.67,1.37,2.25,2.29,.58,.91,.86,2.05,.86,3.42s-.31,2.51-.94,3.58c-.62,1.07-1.57,1.92-2.84,2.56-1.27,.64-2.9,.95-4.9,.95Z"/><path d="M404.04,25.56c-1.06,0-1.88,.18-2.47,.54s-1.03,.87-1.31,1.53-.53,1.46-.72,2.39c-.41,0-.83-.02-1.26-.07-.43-.05-.8-.16-1.12-.32,.22-1.01,.38-2.06,.5-3.15,.12-1.09,.18-2.08,.18-2.97,.77,.02,1.64,.05,2.63,.07,.98,.02,2.07,.04,3.26,.04h7.85c1.21,0,2.32-.01,3.31-.04,1-.02,1.88-.05,2.65-.07-.02,.91,0,1.88,.07,2.9,.07,1.02,.18,2.09,.32,3.22-.31,.14-.67,.25-1.08,.32s-.85,.1-1.33,.07c-.12-1.49-.49-2.6-1.1-3.35-.61-.74-1.6-1.12-2.97-1.12h-7.42Zm1.3-.86h4.61v18c0,.89,.08,1.57,.23,2.05,.16,.48,.45,.82,.88,1.01,.43,.19,1.07,.31,1.91,.36,.1,.22,.16,.5,.2,.85,.04,.35,.05,.71,.05,1.1-.74-.05-1.59-.08-2.54-.09-.95-.01-1.93-.02-2.93-.02-.67,0-1.37,0-2.11,.02-.73,.01-1.42,.02-2.07,.04-.65,.01-1.21,.03-1.69,.05,0-.36,.02-.71,.07-1.06,.05-.35,.11-.64,.18-.88,.84-.05,1.49-.17,1.96-.36,.47-.19,.79-.53,.97-1.01,.18-.48,.27-1.16,.27-2.05V24.7Z"/><path d="M426.72,23.51c.43,.02,.97,.04,1.6,.05,.64,.01,1.31,.02,2.02,.04,.71,.01,1.39,.02,2.03,.02h1.62v18.76c0,.96,.08,1.7,.25,2.21,.17,.52,.48,.88,.94,1.08,.46,.2,1.1,.31,1.94,.31l-.5,1.98h-2.41c-.94,0-1.9,0-2.88,.02-.98,.01-1.89,.02-2.72,.04-.83,.01-1.46,.03-1.89,.05,0-.41,.01-.77,.04-1.1,.02-.32,.08-.61,.18-.85,.65-.05,1.15-.17,1.49-.38,.35-.2,.59-.56,.74-1.08,.14-.52,.22-1.27,.22-2.25v-13.54c0-.91-.07-1.6-.22-2.05-.14-.46-.39-.79-.74-.99-.35-.2-.86-.33-1.53-.38-.07-.24-.12-.55-.14-.92-.02-.37-.04-.71-.04-1.03Zm17.21,0c.05,.55,.11,1.19,.18,1.93,.07,.73,.15,1.45,.25,2.14,.1,.7,.2,1.31,.32,1.84-.27,.17-.58,.29-.96,.38-.37,.08-.81,.13-1.31,.13-.07-.77-.28-1.49-.61-2.18s-.89-1.24-1.66-1.66c-.77-.42-1.87-.63-3.31-.63h-3.89l.94-1.84c1.85,0,3.43,0,4.75-.02,1.32-.01,2.41-.03,3.28-.05,.87-.02,1.54-.04,2.02-.04Zm-2.55,8.17c-.03,.58-.05,1.21-.07,1.89-.02,.68-.04,1.39-.04,2.11s.01,1.49,.04,2.23c.02,.74,.05,1.4,.07,1.98-.43,0-.82-.01-1.15-.04-.34-.02-.66-.08-.97-.18-.1-1.18-.4-1.97-.92-2.38-.52-.41-1.45-.61-2.79-.61h-2.41v-1.91h2.41c1.39,0,2.34-.19,2.84-.58,.5-.38,.77-1.13,.79-2.23,.34-.12,.69-.2,1.06-.23,.37-.04,.75-.05,1.13-.05Zm2.34,9.65c.5,.1,.95,.22,1.33,.38,.38,.16,.7,.35,.94,.59-.26,.82-.49,1.73-.67,2.75-.18,1.02-.33,2.01-.45,2.97-.53-.02-1.24-.04-2.12-.04s-1.86,0-2.92-.02c-1.06-.01-2.12-.02-3.2-.02l.5-1.98h.32c1.44,0,2.55-.17,3.33-.5,.78-.34,1.38-.85,1.82-1.55,.43-.7,.8-1.56,1.12-2.59Z"/><path d="M469.81,48.28l-8.6-18.94h.58l-1.19,11.45c-.12,1.42-.13,2.5-.04,3.24,.1,.74,.34,1.26,.72,1.55,.38,.29,.91,.47,1.58,.54,.1,.29,.16,.61,.18,.97,.02,.36,.04,.68,.04,.97-.5-.05-1.12-.08-1.85-.09-.73-.01-1.41-.02-2.03-.02-.38,0-.82,0-1.31,.02-.49,.01-.97,.02-1.42,.04-.46,.01-.84,.03-1.15,.05,0-.29,.02-.61,.05-.97,.04-.36,.09-.68,.16-.97,.65-.07,1.16-.25,1.53-.54s.67-.81,.9-1.57c.23-.76,.41-1.88,.56-3.37l1.01-11.52c.1-.96,.08-1.7-.04-2.23-.12-.53-.37-.9-.74-1.12-.37-.22-.89-.32-1.57-.32-.1-.29-.16-.6-.18-.94-.02-.34-.04-.67-.04-1.01,.29,.02,.64,.04,1.06,.05,.42,.01,.85,.02,1.28,.04,.43,.01,.82,.02,1.15,.02s.71,0,1.13-.02c.42-.01,.83-.02,1.24-.04,.41-.01,.76-.03,1.04-.05l8.71,19.69h-.97l7.6-19.69c.34,.02,.71,.04,1.13,.05,.42,.01,.85,.02,1.28,.04,.43,.01,.82,.02,1.15,.02s.71,0,1.12-.02c.41-.01,.81-.02,1.21-.04,.4-.01,.76-.03,1.1-.05,0,.34-.01,.67-.04,1.01-.02,.34-.08,.65-.18,.94-.94,0-1.61,.26-2.02,.79-.41,.53-.54,1.54-.4,3.02l1.22,12.13c.12,1.25,.28,2.2,.47,2.86,.19,.66,.46,1.11,.81,1.35,.35,.24,.81,.4,1.39,.47,.07,.29,.13,.61,.16,.95,.04,.35,.05,.69,.05,1.03-.29-.02-.65-.04-1.08-.05-.43-.01-.9-.02-1.4-.04-.5-.01-.99-.02-1.46-.02h-1.28c-.46,0-.99,0-1.6,.02-.61,.01-1.19,.02-1.75,.04-.55,.01-1.02,.03-1.4,.05,0-.34,.02-.67,.07-1.01,.05-.34,.11-.65,.18-.94,.77-.1,1.32-.26,1.66-.49,.33-.23,.53-.64,.59-1.22,.06-.59,.03-1.43-.09-2.54l-1.33-12.6h.54l-7.63,18.76c-.26,.1-.56,.16-.88,.2-.32,.04-.65,.05-.99,.05Z"/></g><g id="b"><circle cx="132.08" cy="189.06" r="108.86" style="fill:url(#c); stroke:#000; stroke-miterlimit:10;"/><circle cx="394.13" cy="189.06" r="108.86" style="fill:url(#d); stroke:#000; stroke-miterlimit:10;"/><circle cx="649.65" cy="189.06" r="108.86" style="fill:url(#e); stroke:#000; stroke-miterlimit:10;"/><g><path d="M103.48,188.04h-4.72v4.38h5.26v1.31h-6.82v-12.14h6.55v1.31h-4.99v3.83h4.72v1.3Z"/><path d="M112.7,193.73l-1.55-2.68c-.63-1.03-1.03-1.69-1.4-2.4h-.04c-.34,.7-.68,1.35-1.31,2.41l-1.46,2.67h-1.8l3.71-6.14-3.56-6h1.82l1.6,2.84c.45,.79,.79,1.4,1.12,2.05h.05c.34-.72,.65-1.28,1.1-2.05l1.66-2.84h1.8l-3.69,5.91,3.78,6.23h-1.82Z"/><path d="M116.33,181.74c.76-.13,1.75-.23,3.01-.23,1.55,0,2.68,.36,3.4,1.01,.67,.58,1.06,1.46,1.06,2.54s-.32,1.96-.94,2.59c-.83,.88-2.18,1.33-3.71,1.33-.47,0-.9-.02-1.26-.11v4.86h-1.57v-11.99Zm1.57,5.85c.34,.09,.77,.13,1.3,.13,1.89,0,3.04-.92,3.04-2.59s-1.13-2.38-2.86-2.38c-.68,0-1.21,.05-1.48,.13v4.72Z"/><path d="M136.28,187.54c0,4.18-2.54,6.39-5.64,6.39s-5.46-2.49-5.46-6.16c0-3.85,2.4-6.37,5.64-6.37s5.46,2.54,5.46,6.14Zm-9.42,.2c0,2.59,1.4,4.92,3.87,4.92s3.89-2.29,3.89-5.04c0-2.41-1.26-4.93-3.87-4.93s-3.89,2.39-3.89,5.06Z"/><path d="M138.09,191.82c.7,.43,1.73,.79,2.81,.79,1.6,0,2.54-.85,2.54-2.07,0-1.13-.65-1.78-2.29-2.41-1.98-.7-3.21-1.73-3.21-3.44,0-1.89,1.57-3.29,3.93-3.29,1.24,0,2.14,.29,2.68,.59l-.43,1.28c-.4-.22-1.21-.58-2.3-.58-1.66,0-2.29,.99-2.29,1.82,0,1.13,.74,1.69,2.41,2.34,2.05,.79,3.1,1.78,3.1,3.56,0,1.87-1.39,3.49-4.25,3.49-1.17,0-2.45-.34-3.1-.77l.4-1.31Z"/><path d="M148.75,181.59v7.18c0,2.72,1.21,3.87,2.83,3.87,1.8,0,2.95-1.19,2.95-3.87v-7.18h1.58v7.08c0,3.73-1.96,5.26-4.59,5.26-2.48,0-4.36-1.42-4.36-5.19v-7.15h1.58Z"/><path d="M158.83,181.76c.79-.16,1.93-.25,3.01-.25,1.67,0,2.75,.31,3.51,.99,.61,.54,.95,1.37,.95,2.3,0,1.6-1.01,2.66-2.29,3.1v.05c.94,.32,1.49,1.19,1.78,2.45,.4,1.69,.68,2.86,.94,3.33h-1.62c-.2-.34-.47-1.39-.81-2.9-.36-1.67-1.01-2.3-2.43-2.36h-1.48v5.26h-1.57v-11.97Zm1.57,5.53h1.6c1.67,0,2.74-.92,2.74-2.3,0-1.57-1.13-2.25-2.79-2.27-.76,0-1.3,.07-1.55,.14v4.43Z"/><path d="M174.8,188.04h-4.72v4.38h5.26v1.31h-6.82v-12.14h6.55v1.31h-4.99v3.83h4.72v1.3Z"/></g><g><path d="M361.72,181.74c.76-.12,1.75-.23,3.01-.23,1.55,0,2.68,.36,3.4,1.01,.67,.58,1.06,1.46,1.06,2.54s-.32,1.96-.94,2.59c-.83,.88-2.18,1.33-3.71,1.33-.47,0-.9-.02-1.26-.11v4.86h-1.57v-11.99Zm1.57,5.85c.34,.09,.77,.13,1.3,.13,1.89,0,3.04-.92,3.04-2.59s-1.13-2.38-2.86-2.38c-.68,0-1.21,.05-1.48,.13v4.72Z"/><path d="M372.86,181.59v7.18c0,2.72,1.21,3.87,2.83,3.87,1.8,0,2.95-1.19,2.95-3.87v-7.18h1.58v7.08c0,3.73-1.96,5.26-4.59,5.26-2.48,0-4.36-1.42-4.36-5.19v-7.15h1.58Z"/><path d="M382.94,181.76c.79-.16,1.93-.25,3.01-.25,1.67,0,2.75,.31,3.51,.99,.61,.54,.95,1.37,.95,2.3,0,1.6-1.01,2.67-2.29,3.1v.05c.94,.32,1.49,1.19,1.78,2.45,.4,1.69,.68,2.86,.94,3.33h-1.62c-.2-.34-.47-1.39-.81-2.9-.36-1.67-1.01-2.3-2.43-2.36h-1.48v5.26h-1.57v-11.97Zm1.57,5.53h1.6c1.67,0,2.74-.92,2.74-2.3,0-1.57-1.13-2.25-2.79-2.27-.76,0-1.3,.07-1.55,.14v4.43Z"/><path d="M392.63,181.74c.76-.12,1.75-.23,3.01-.23,1.55,0,2.68,.36,3.4,1.01,.67,.58,1.06,1.46,1.06,2.54s-.32,1.96-.94,2.59c-.83,.88-2.18,1.33-3.71,1.33-.47,0-.9-.02-1.26-.11v4.86h-1.57v-11.99Zm1.57,5.85c.34,.09,.77,.13,1.3,.13,1.89,0,3.04-.92,3.04-2.59s-1.13-2.38-2.86-2.38c-.68,0-1.21,.05-1.48,.13v4.72Z"/><path d="M412.57,187.54c0,4.18-2.54,6.39-5.64,6.39s-5.46-2.49-5.46-6.16c0-3.85,2.4-6.37,5.64-6.37s5.46,2.54,5.46,6.14Zm-9.42,.2c0,2.59,1.4,4.92,3.87,4.92s3.89-2.29,3.89-5.04c0-2.41-1.26-4.93-3.87-4.93s-3.89,2.39-3.89,5.06Z"/><path d="M414.39,191.82c.7,.43,1.73,.79,2.81,.79,1.6,0,2.54-.85,2.54-2.07,0-1.13-.65-1.78-2.29-2.41-1.98-.7-3.2-1.73-3.2-3.44,0-1.89,1.57-3.29,3.92-3.29,1.24,0,2.14,.29,2.68,.59l-.43,1.28c-.4-.22-1.21-.58-2.3-.58-1.66,0-2.29,.99-2.29,1.82,0,1.13,.74,1.69,2.41,2.34,2.05,.79,3.1,1.78,3.1,3.57,0,1.87-1.39,3.49-4.25,3.49-1.17,0-2.45-.34-3.1-.77l.4-1.31Z"/><path d="M429.76,188.04h-4.72v4.38h5.26v1.31h-6.82v-12.14h6.55v1.31h-4.99v3.83h4.72v1.3Z"/></g><g><path d="M611.64,181.76c.95-.14,2.09-.25,3.33-.25,2.25,0,3.85,.52,4.92,1.51,1.08,.99,1.71,2.39,1.71,4.36s-.61,3.6-1.75,4.72c-1.13,1.13-3.01,1.75-5.37,1.75-1.12,0-2.05-.05-2.84-.14v-11.94Zm1.57,10.73c.4,.07,.97,.09,1.58,.09,3.35,0,5.17-1.87,5.17-5.15,.02-2.86-1.6-4.68-4.92-4.68-.81,0-1.42,.07-1.84,.16v9.58Z"/><path d="M629.91,188.04h-4.72v4.38h5.26v1.31h-6.82v-12.14h6.55v1.31h-4.99v3.84h4.72v1.3Z"/><path d="M632.48,181.74c.76-.13,1.75-.23,3.01-.23,1.55,0,2.68,.36,3.4,1.01,.67,.58,1.06,1.46,1.06,2.54s-.32,1.96-.94,2.59c-.83,.88-2.18,1.33-3.71,1.33-.47,0-.9-.02-1.26-.11v4.86h-1.57v-11.99Zm1.57,5.85c.34,.09,.77,.13,1.3,.13,1.89,0,3.04-.92,3.04-2.59s-1.13-2.38-2.86-2.38c-.68,0-1.21,.05-1.48,.13v4.72Z"/><path d="M648.34,188.04h-4.72v4.38h5.26v1.31h-6.82v-12.14h6.55v1.31h-4.99v3.84h4.72v1.3Z"/><path d="M650.91,193.73v-12.14h1.71l3.89,6.14c.9,1.42,1.6,2.7,2.18,3.94l.04-.02c-.14-1.62-.18-3.1-.18-4.99v-5.08h1.48v12.14h-1.59l-3.85-6.16c-.85-1.35-1.66-2.74-2.27-4.05l-.05,.02c.09,1.53,.13,2.99,.13,5v5.19h-1.48Z"/><path d="M662.76,181.76c.95-.14,2.09-.25,3.33-.25,2.25,0,3.85,.52,4.92,1.51,1.08,.99,1.71,2.39,1.71,4.36s-.61,3.6-1.75,4.72c-1.13,1.13-3.01,1.75-5.37,1.75-1.12,0-2.05-.05-2.84-.14v-11.94Zm1.57,10.73c.4,.07,.97,.09,1.58,.09,3.35,0,5.17-1.87,5.17-5.15,.02-2.86-1.6-4.68-4.92-4.68-.81,0-1.42,.07-1.84,.16v9.58Z"/><path d="M681.03,188.04h-4.72v4.38h5.26v1.31h-6.82v-12.14h6.55v1.31h-4.99v3.84h4.72v1.3Z"/><path d="M683.6,193.73v-12.14h1.71l3.89,6.14c.9,1.42,1.6,2.7,2.18,3.94l.04-.02c-.14-1.62-.18-3.1-.18-4.99v-5.08h1.48v12.14h-1.59l-3.85-6.16c-.85-1.35-1.66-2.74-2.27-4.05l-.05,.02c.09,1.53,.13,2.99,.13,5v5.19h-1.48Z"/><path d="M703.92,193.33c-.58,.29-1.73,.58-3.21,.58-3.42,0-6-2.16-6-6.14s2.57-6.37,6.34-6.37c1.51,0,2.47,.32,2.88,.54l-.38,1.28c-.6-.29-1.44-.5-2.45-.5-2.85,0-4.74,1.82-4.74,5,0,2.97,1.71,4.88,4.66,4.88,.96,0,1.93-.2,2.56-.5l.32,1.24Z"/><path d="M708.64,193.73v-5.15l-3.83-6.99h1.78l1.71,3.35c.47,.92,.83,1.66,1.21,2.5h.04c.34-.79,.76-1.58,1.22-2.5l1.75-3.35h1.78l-4.07,6.97v5.17h-1.58Z"/></g><g><line x1="240.94" y1="189.06" x2="279.23" y2="189.06" style="fill:none; stroke:#000; stroke-linecap:square; stroke-miterlimit:10;"/><path d="M285.26,189.06c-2.84,1.05-6.36,2.85-8.55,4.76l1.72-4.76-1.72-4.75c2.18,1.9,5.71,3.7,8.55,4.75Z"/></g><g><line x1="502.99" y1="189.06" x2="534.75" y2="189.06" style="fill:none; stroke:#000; stroke-linecap:square; stroke-miterlimit:10;"/><path d="M540.79,189.06c-2.84,1.05-6.36,2.85-8.55,4.76l1.72-4.76-1.72-4.75c2.18,1.9,5.71,3.7,8.55,4.75Z"/></g></g></svg>