<?xml version="1.0" encoding="UTF-8"?><svg id="a" xmlns="http://www.w3.org/2000/svg" width="788.26" height="338.12" xmlns:xlink="http://www.w3.org/1999/xlink" viewBox="0 0 788.26 338.12"><defs><linearGradient id="c" x1="23.21" y1="181.06" x2="240.94" y2="181.06" gradientUnits="userSpaceOnUse"><stop offset="0" stop-color="#3ddeed"/><stop offset="1" stop-color="#3ddeed" stop-opacity="0"/></linearGradient><linearGradient id="d" x1="285.26" y1="181.06" x2="502.99" y2="181.06" gradientUnits="userSpaceOnUse"><stop offset="0" stop-color="#00bf11"/><stop offset="1" stop-color="#3ddeed" stop-opacity="0"/></linearGradient><linearGradient id="e" x1="540.79" y1="181.06" x2="758.52" y2="181.06" gradientUnits="userSpaceOnUse"><stop offset="0" stop-color="#ff151b"/><stop offset="1" stop-color="#3ddeed" stop-opacity="0"/></linearGradient></defs><rect x=".5" y=".5" width="787.26" height="337.12" rx="20" ry="20" style="fill:#fff; stroke:#000; stroke-miterlimit:10;"/><g><path d="M340.27,34.51c-1.02,0-1.94-.13-2.76-.4-.82-.26-1.63-.63-2.45-1.09,.11-.62,.18-1.25,.22-1.88,.03-.63,.05-1.2,.05-1.72,.27-.08,.57-.14,.89-.17,.32-.03,.63-.05,.94-.05,.06,.88,.2,1.61,.42,2.18,.22,.58,.56,1,1.03,1.28,.47,.28,1.09,.42,1.86,.42,1.01,0,1.73-.22,2.17-.66,.44-.44,.66-.96,.66-1.55s-.19-1.12-.58-1.52c-.38-.41-.88-.76-1.48-1.07-.6-.3-1.24-.61-1.91-.91-.67-.3-1.31-.66-1.91-1.08-.6-.42-1.09-.94-1.48-1.56-.38-.62-.58-1.41-.58-2.35,0-1.01,.22-1.85,.66-2.52,.44-.67,1.05-1.18,1.82-1.51,.78-.34,1.67-.5,2.68-.5,.58,0,1.14,.05,1.68,.14,.54,.1,1.05,.22,1.51,.38,.46,.16,.83,.34,1.1,.53,0,.54,.01,1.13,.04,1.75s.07,1.14,.13,1.56c-.22,.11-.51,.2-.85,.25s-.66,.08-.95,.08c-.16-.91-.36-1.61-.61-2.09-.25-.48-.56-.81-.92-1s-.78-.28-1.25-.28c-.74,0-1.32,.18-1.76,.53-.44,.35-.66,.86-.66,1.51s.19,1.17,.58,1.6c.38,.42,.88,.79,1.5,1.1,.62,.31,1.27,.63,1.96,.95,.69,.32,1.34,.68,1.96,1.09,.62,.41,1.12,.92,1.5,1.52,.38,.61,.58,1.37,.58,2.28s-.21,1.68-.62,2.39-1.05,1.28-1.9,1.7c-.85,.42-1.94,.64-3.26,.64Z"/><path d="M360.05,29.4h-1.9l-4.39-8.69c-.26-.51-.51-.87-.76-1.08-.25-.21-.56-.32-.95-.34-.06-.21-.11-.41-.13-.61s-.04-.42-.04-.66c.27,0,.58,0,.94,.01,.35,0,.71,.02,1.07,.02,.36,0,.69,.01,1,.01h1.12c.44,0,.88,0,1.31-.01,.43,0,.78-.02,1.06-.04,0,.26-.01,.47-.04,.65-.02,.18-.06,.37-.11,.58-.58,.06-.9,.25-.96,.55-.06,.3,.06,.78,.36,1.44,.37,.72,.77,1.56,1.21,2.53,.44,.97,.88,1.97,1.31,3.01h-.17c.46-1.07,.9-2.06,1.31-2.95s.79-1.7,1.14-2.4c.35-.75,.47-1.28,.36-1.58-.11-.3-.46-.49-1.03-.55-.05-.21-.09-.41-.13-.6s-.06-.42-.06-.67c.34,.02,.72,.03,1.15,.04,.43,0,.85,.01,1.25,.01,.37,0,.74,0,1.1-.01,.37,0,.7-.02,1.01-.04,0,.24-.01,.46-.04,.65s-.05,.38-.08,.58c-.4,.1-.77,.32-1.1,.67-.34,.35-.7,.94-1.1,1.75l-3.7,7.73Zm.58-1.42v2.14c0,.82,.04,1.42,.13,1.82,.09,.4,.28,.67,.56,.8s.73,.24,1.32,.32c.06,.21,.11,.41,.13,.61,.02,.2,.04,.43,.04,.68-.58-.02-1.19-.03-1.85-.05-.66-.02-1.28-.02-1.87-.02-.43,0-.89,0-1.37,.01-.48,0-.94,.01-1.37,.01s-.81,0-1.13,.02c.02-.22,.04-.45,.06-.67,.02-.22,.07-.42,.13-.6,.64-.06,1.11-.16,1.42-.28s.5-.37,.59-.74c.09-.38,.13-.96,.13-1.74v-2.33h3.07Z"/><path d="M377.4,34.51c-1.02,0-1.94-.13-2.76-.4-.82-.26-1.63-.63-2.45-1.09,.11-.62,.18-1.25,.22-1.88,.03-.63,.05-1.2,.05-1.72,.27-.08,.57-.14,.89-.17,.32-.03,.63-.05,.94-.05,.06,.88,.2,1.61,.42,2.18,.22,.58,.56,1,1.03,1.28,.47,.28,1.09,.42,1.86,.42,1.01,0,1.73-.22,2.17-.66,.44-.44,.66-.96,.66-1.55s-.19-1.12-.58-1.52c-.38-.41-.88-.76-1.48-1.07-.6-.3-1.24-.61-1.91-.91-.67-.3-1.31-.66-1.91-1.08-.6-.42-1.09-.94-1.48-1.56-.38-.62-.58-1.41-.58-2.35,0-1.01,.22-1.85,.66-2.52,.44-.67,1.05-1.18,1.82-1.51,.78-.34,1.67-.5,2.68-.5,.58,0,1.14,.05,1.68,.14,.54,.1,1.05,.22,1.51,.38,.46,.16,.83,.34,1.1,.53,0,.54,.01,1.13,.04,1.75s.07,1.14,.13,1.56c-.22,.11-.51,.2-.85,.25s-.66,.08-.95,.08c-.16-.91-.36-1.61-.61-2.09-.25-.48-.56-.81-.92-1s-.78-.28-1.25-.28c-.74,0-1.32,.18-1.76,.53-.44,.35-.66,.86-.66,1.51s.19,1.17,.58,1.6c.38,.42,.88,.79,1.5,1.1,.62,.31,1.27,.63,1.96,.95,.69,.32,1.34,.68,1.96,1.09,.62,.41,1.12,.92,1.5,1.52,.38,.61,.58,1.37,.58,2.28s-.21,1.68-.62,2.39-1.05,1.28-1.9,1.7c-.85,.42-1.94,.64-3.26,.64Z"/><path d="M393.72,19.37c-.7,0-1.25,.12-1.64,.36-.39,.24-.68,.58-.88,1.02s-.35,.97-.48,1.6c-.27,0-.55-.02-.84-.05-.29-.03-.54-.1-.74-.22,.14-.67,.26-1.37,.34-2.1s.12-1.39,.12-1.98c.51,.02,1.1,.03,1.75,.05,.66,.02,1.38,.02,2.17,.02h5.23c.81,0,1.54,0,2.21-.02,.66-.02,1.25-.03,1.76-.05-.02,.61,0,1.25,.05,1.93s.12,1.4,.22,2.15c-.21,.1-.45,.17-.72,.22-.27,.05-.57,.06-.89,.05-.08-.99-.32-1.74-.73-2.23-.41-.5-1.07-.74-1.98-.74h-4.94Zm.86-.58h3.07v12c0,.59,.05,1.05,.16,1.37,.1,.32,.3,.54,.59,.67s.71,.21,1.27,.24c.06,.14,.11,.33,.13,.56,.02,.23,.04,.48,.04,.73-.5-.03-1.06-.05-1.69-.06-.63,0-1.28-.01-1.96-.01-.45,0-.92,0-1.4,.01-.49,0-.95,.02-1.38,.02-.43,0-.81,.02-1.13,.04,0-.24,.02-.48,.05-.71,.03-.23,.07-.43,.12-.59,.56-.03,1-.11,1.31-.24s.53-.35,.65-.67c.12-.32,.18-.78,.18-1.37v-12Z"/><path d="M408.84,18c.29,.02,.64,.03,1.07,.04,.42,0,.87,.02,1.34,.02,.47,0,.92,.01,1.36,.01h1.08v12.5c0,.64,.06,1.13,.17,1.48,.11,.34,.32,.58,.62,.72,.3,.14,.74,.2,1.3,.2l-.34,1.32h-1.61c-.62,0-1.26,0-1.92,.01-.66,0-1.26,.02-1.81,.02-.55,0-.97,.02-1.26,.04,0-.27,0-.52,.02-.73,.02-.22,.06-.4,.12-.56,.43-.03,.76-.12,1-.25,.23-.14,.4-.38,.49-.72,.1-.34,.14-.84,.14-1.5v-9.02c0-.61-.05-1.06-.14-1.37-.1-.3-.26-.52-.49-.66-.23-.14-.57-.22-1.02-.25-.05-.16-.08-.36-.1-.61-.02-.25-.02-.48-.02-.68Zm11.47,0c.03,.37,.07,.8,.12,1.28,.05,.49,.1,.96,.17,1.43,.06,.46,.14,.87,.22,1.22-.18,.11-.39,.2-.64,.25-.25,.06-.54,.08-.88,.08-.05-.51-.18-1-.41-1.45-.22-.46-.59-.82-1.1-1.1-.51-.28-1.25-.42-2.21-.42h-2.59l.62-1.22c1.23,0,2.29,0,3.17-.01,.88,0,1.61-.02,2.18-.04,.58-.02,1.02-.02,1.34-.02Zm-1.7,5.45c-.02,.38-.03,.8-.05,1.26-.02,.46-.02,.92-.02,1.4s0,.99,.02,1.49c.02,.5,.03,.94,.05,1.32-.29,0-.54,0-.77-.02-.22-.02-.44-.06-.65-.12-.06-.78-.27-1.31-.61-1.58-.34-.27-.96-.41-1.86-.41h-1.61v-1.27h1.61c.93,0,1.56-.13,1.9-.38s.51-.75,.53-1.49c.22-.08,.46-.13,.71-.16,.25-.02,.5-.04,.76-.04Zm1.56,6.43c.34,.06,.63,.15,.89,.25,.25,.1,.46,.24,.62,.4-.18,.54-.32,1.16-.44,1.84-.12,.68-.22,1.34-.3,1.98-.35-.02-.82-.02-1.42-.02s-1.24,0-1.94-.01c-.7,0-1.42-.01-2.14-.01l.34-1.32h.22c.96,0,1.7-.11,2.22-.34,.52-.22,.92-.57,1.21-1.03,.29-.46,.54-1.04,.74-1.73Z"/><path d="M437.56,34.51l-5.74-12.62h.38l-.79,7.63c-.08,.94-.09,1.66-.02,2.16,.06,.5,.22,.84,.48,1.03s.61,.31,1.06,.36c.06,.19,.1,.41,.12,.65,.02,.24,.02,.46,.02,.65-.34-.03-.75-.05-1.24-.06-.49,0-.94-.01-1.36-.01-.26,0-.55,0-.88,.01-.33,0-.64,.02-.95,.02-.3,0-.56,.02-.77,.04,0-.19,.01-.41,.04-.65,.02-.24,.06-.46,.11-.65,.43-.05,.77-.17,1.02-.36s.45-.54,.6-1.04c.15-.5,.28-1.25,.37-2.24l.67-7.68c.06-.64,.06-1.14-.02-1.49-.08-.35-.24-.6-.49-.74s-.6-.22-1.04-.22c-.06-.19-.1-.4-.12-.62-.02-.22-.02-.45-.02-.67,.19,.02,.43,.03,.71,.04,.28,0,.56,.02,.85,.02,.29,0,.54,.01,.77,.01s.48,0,.76-.01c.28,0,.56-.02,.83-.02,.27,0,.5-.02,.7-.04l5.81,13.13h-.65l5.06-13.13c.22,.02,.48,.03,.76,.04,.28,0,.56,.02,.85,.02,.29,0,.54,.01,.77,.01s.47,0,.74-.01c.27,0,.54-.02,.8-.02,.26,0,.51-.02,.73-.04,0,.22,0,.45-.02,.67-.02,.22-.06,.43-.12,.62-.62,0-1.07,.18-1.34,.53-.27,.35-.36,1.02-.26,2.02l.82,8.09c.08,.83,.18,1.47,.31,1.91,.13,.44,.31,.74,.54,.9,.23,.16,.54,.26,.92,.31,.05,.19,.08,.4,.11,.64,.02,.23,.04,.46,.04,.68-.19-.02-.43-.03-.72-.04-.29,0-.6-.02-.94-.02-.34,0-.66-.01-.97-.01h-.85c-.3,0-.66,0-1.07,.01-.41,0-.8,.02-1.16,.02-.37,0-.68,.02-.94,.04,0-.22,.02-.45,.05-.67,.03-.22,.07-.43,.12-.62,.51-.06,.88-.17,1.1-.32,.22-.15,.36-.42,.4-.82,.04-.39,.02-.96-.06-1.69l-.89-8.4h.36l-5.09,12.5c-.18,.06-.37,.11-.59,.13-.22,.02-.44,.04-.66,.04Z"/></g><g id="b"><circle cx="132.08" cy="181.06" r="108.86" style="fill:url(#c); stroke:#000; stroke-miterlimit:10;"/><circle cx="394.13" cy="181.06" r="108.86" style="fill:url(#d); stroke:#000; stroke-miterlimit:10;"/><circle cx="649.65" cy="181.06" r="108.86" style="fill:url(#e); stroke:#000; stroke-miterlimit:10;"/><g><path d="M103.48,180.04h-4.72v4.38h5.26v1.31h-6.82v-12.14h6.55v1.31h-4.99v3.83h4.72v1.3Z"/><path d="M112.7,185.73l-1.55-2.68c-.63-1.03-1.03-1.69-1.4-2.4h-.04c-.34,.7-.68,1.35-1.31,2.41l-1.46,2.67h-1.8l3.71-6.14-3.56-6h1.82l1.6,2.84c.45,.79,.79,1.4,1.12,2.05h.05c.34-.72,.65-1.28,1.1-2.05l1.66-2.84h1.8l-3.69,5.91,3.78,6.23h-1.82Z"/><path d="M116.33,173.74c.76-.13,1.75-.23,3.01-.23,1.55,0,2.68,.36,3.4,1.01,.67,.58,1.06,1.46,1.06,2.54s-.32,1.96-.94,2.59c-.83,.88-2.18,1.33-3.71,1.33-.47,0-.9-.02-1.26-.11v4.86h-1.57v-11.99Zm1.57,5.85c.34,.09,.77,.13,1.3,.13,1.89,0,3.04-.92,3.04-2.59s-1.13-2.38-2.86-2.38c-.68,0-1.21,.05-1.48,.13v4.72Z"/><path d="M136.28,179.54c0,4.18-2.54,6.39-5.64,6.39s-5.46-2.49-5.46-6.16c0-3.85,2.4-6.37,5.64-6.37s5.46,2.54,5.46,6.14Zm-9.42,.2c0,2.59,1.4,4.92,3.87,4.92s3.89-2.29,3.89-5.04c0-2.41-1.26-4.93-3.87-4.93s-3.89,2.39-3.89,5.06Z"/><path d="M138.09,183.82c.7,.43,1.73,.79,2.81,.79,1.6,0,2.54-.85,2.54-2.07,0-1.13-.65-1.78-2.29-2.41-1.98-.7-3.21-1.73-3.21-3.44,0-1.89,1.57-3.29,3.93-3.29,1.24,0,2.14,.29,2.68,.59l-.43,1.28c-.4-.22-1.21-.58-2.3-.58-1.66,0-2.29,.99-2.29,1.82,0,1.13,.74,1.69,2.41,2.34,2.05,.79,3.1,1.78,3.1,3.56,0,1.87-1.39,3.49-4.25,3.49-1.17,0-2.45-.34-3.1-.77l.4-1.31Z"/><path d="M148.75,173.59v7.18c0,2.72,1.21,3.87,2.83,3.87,1.8,0,2.95-1.19,2.95-3.87v-7.18h1.58v7.08c0,3.73-1.96,5.26-4.59,5.26-2.48,0-4.36-1.42-4.36-5.19v-7.15h1.58Z"/><path d="M158.83,173.76c.79-.16,1.93-.25,3.01-.25,1.67,0,2.75,.31,3.51,.99,.61,.54,.95,1.37,.95,2.3,0,1.6-1.01,2.66-2.29,3.1v.05c.94,.32,1.49,1.19,1.78,2.45,.4,1.69,.68,2.86,.94,3.33h-1.62c-.2-.34-.47-1.39-.81-2.9-.36-1.67-1.01-2.3-2.43-2.36h-1.48v5.26h-1.57v-11.97Zm1.57,5.53h1.6c1.67,0,2.74-.92,2.74-2.3,0-1.57-1.13-2.25-2.79-2.27-.76,0-1.3,.07-1.55,.14v4.43Z"/><path d="M174.8,180.04h-4.72v4.38h5.26v1.31h-6.82v-12.14h6.55v1.31h-4.99v3.83h4.72v1.3Z"/></g><g><path d="M361.72,173.74c.76-.12,1.75-.23,3.01-.23,1.55,0,2.68,.36,3.4,1.01,.67,.58,1.06,1.46,1.06,2.54s-.32,1.96-.94,2.59c-.83,.88-2.18,1.33-3.71,1.33-.47,0-.9-.02-1.26-.11v4.86h-1.57v-11.99Zm1.57,5.85c.34,.09,.77,.13,1.3,.13,1.89,0,3.04-.92,3.04-2.59s-1.13-2.38-2.86-2.38c-.68,0-1.21,.05-1.48,.13v4.72Z"/><path d="M372.86,173.59v7.18c0,2.72,1.21,3.87,2.83,3.87,1.8,0,2.95-1.19,2.95-3.87v-7.18h1.58v7.08c0,3.73-1.96,5.26-4.59,5.26-2.48,0-4.36-1.42-4.36-5.19v-7.15h1.58Z"/><path d="M382.94,173.76c.79-.16,1.93-.25,3.01-.25,1.67,0,2.75,.31,3.51,.99,.61,.54,.95,1.37,.95,2.3,0,1.6-1.01,2.67-2.29,3.1v.05c.94,.32,1.49,1.19,1.78,2.45,.4,1.69,.68,2.86,.94,3.33h-1.62c-.2-.34-.47-1.39-.81-2.9-.36-1.67-1.01-2.3-2.43-2.36h-1.48v5.26h-1.57v-11.97Zm1.57,5.53h1.6c1.67,0,2.74-.92,2.74-2.3,0-1.57-1.13-2.25-2.79-2.27-.76,0-1.3,.07-1.55,.14v4.43Z"/><path d="M392.63,173.74c.76-.12,1.75-.23,3.01-.23,1.55,0,2.68,.36,3.4,1.01,.67,.58,1.06,1.46,1.06,2.54s-.32,1.96-.94,2.59c-.83,.88-2.18,1.33-3.71,1.33-.47,0-.9-.02-1.26-.11v4.86h-1.57v-11.99Zm1.57,5.85c.34,.09,.77,.13,1.3,.13,1.89,0,3.04-.92,3.04-2.59s-1.13-2.38-2.86-2.38c-.68,0-1.21,.05-1.48,.13v4.72Z"/><path d="M412.57,179.54c0,4.18-2.54,6.39-5.64,6.39s-5.46-2.49-5.46-6.16c0-3.85,2.4-6.37,5.64-6.37s5.46,2.54,5.46,6.14Zm-9.42,.2c0,2.59,1.4,4.92,3.87,4.92s3.89-2.29,3.89-5.04c0-2.41-1.26-4.93-3.87-4.93s-3.89,2.39-3.89,5.06Z"/><path d="M414.39,183.82c.7,.43,1.73,.79,2.81,.79,1.6,0,2.54-.85,2.54-2.07,0-1.13-.65-1.78-2.29-2.41-1.98-.7-3.2-1.73-3.2-3.44,0-1.89,1.57-3.29,3.92-3.29,1.24,0,2.14,.29,2.68,.59l-.43,1.28c-.4-.22-1.21-.58-2.3-.58-1.66,0-2.29,.99-2.29,1.82,0,1.13,.74,1.69,2.41,2.34,2.05,.79,3.1,1.78,3.1,3.57,0,1.87-1.39,3.49-4.25,3.49-1.17,0-2.45-.34-3.1-.77l.4-1.31Z"/><path d="M429.76,180.04h-4.72v4.38h5.26v1.31h-6.82v-12.14h6.55v1.31h-4.99v3.83h4.72v1.3Z"/></g><g><path d="M611.64,173.76c.95-.14,2.09-.25,3.33-.25,2.25,0,3.85,.52,4.92,1.51,1.08,.99,1.71,2.39,1.71,4.36s-.61,3.6-1.75,4.72c-1.13,1.13-3.01,1.75-5.37,1.75-1.12,0-2.05-.05-2.84-.14v-11.94Zm1.57,10.73c.4,.07,.97,.09,1.58,.09,3.35,0,5.17-1.87,5.17-5.15,.02-2.86-1.6-4.68-4.92-4.68-.81,0-1.42,.07-1.84,.16v9.58Z"/><path d="M629.91,180.04h-4.72v4.38h5.26v1.31h-6.82v-12.14h6.55v1.31h-4.99v3.84h4.72v1.3Z"/><path d="M632.48,173.74c.76-.13,1.75-.23,3.01-.23,1.55,0,2.68,.36,3.4,1.01,.67,.58,1.06,1.46,1.06,2.54s-.32,1.96-.94,2.59c-.83,.88-2.18,1.33-3.71,1.33-.47,0-.9-.02-1.26-.11v4.86h-1.57v-11.99Zm1.57,5.85c.34,.09,.77,.13,1.3,.13,1.89,0,3.04-.92,3.04-2.59s-1.13-2.38-2.86-2.38c-.68,0-1.21,.05-1.48,.13v4.72Z"/><path d="M648.34,180.04h-4.72v4.38h5.26v1.31h-6.82v-12.14h6.55v1.31h-4.99v3.84h4.72v1.3Z"/><path d="M650.91,185.73v-12.14h1.71l3.89,6.14c.9,1.42,1.6,2.7,2.18,3.94l.04-.02c-.14-1.62-.18-3.1-.18-4.99v-5.08h1.48v12.14h-1.59l-3.85-6.16c-.85-1.35-1.66-2.74-2.27-4.05l-.05,.02c.09,1.53,.13,2.99,.13,5v5.19h-1.48Z"/><path d="M662.76,173.76c.95-.14,2.09-.25,3.33-.25,2.25,0,3.85,.52,4.92,1.51,1.08,.99,1.71,2.39,1.71,4.36s-.61,3.6-1.75,4.72c-1.13,1.13-3.01,1.75-5.37,1.75-1.12,0-2.05-.05-2.84-.14v-11.94Zm1.57,10.73c.4,.07,.97,.09,1.58,.09,3.35,0,5.17-1.87,5.17-5.15,.02-2.86-1.6-4.68-4.92-4.68-.81,0-1.42,.07-1.84,.16v9.58Z"/><path d="M681.03,180.04h-4.72v4.38h5.26v1.31h-6.82v-12.14h6.55v1.31h-4.99v3.84h4.72v1.3Z"/><path d="M683.6,185.73v-12.14h1.71l3.89,6.14c.9,1.42,1.6,2.7,2.18,3.94l.04-.02c-.14-1.62-.18-3.1-.18-4.99v-5.08h1.48v12.14h-1.59l-3.85-6.16c-.85-1.35-1.66-2.74-2.27-4.05l-.05,.02c.09,1.53,.13,2.99,.13,5v5.19h-1.48Z"/><path d="M703.92,185.33c-.58,.29-1.73,.58-3.21,.58-3.42,0-6-2.16-6-6.14s2.57-6.37,6.34-6.37c1.51,0,2.47,.32,2.88,.54l-.38,1.28c-.6-.29-1.44-.5-2.45-.5-2.85,0-4.74,1.82-4.74,5,0,2.97,1.71,4.88,4.66,4.88,.96,0,1.93-.2,2.56-.5l.32,1.24Z"/><path d="M708.64,185.73v-5.15l-3.83-6.99h1.78l1.71,3.35c.47,.92,.83,1.66,1.21,2.5h.04c.34-.79,.76-1.58,1.22-2.5l1.75-3.35h1.78l-4.07,6.97v5.17h-1.58Z"/></g><g><line x1="240.94" y1="181.06" x2="279.23" y2="181.06" style="fill:none; stroke:#000; stroke-linecap:square; stroke-miterlimit:10;"/><path d="M285.26,181.06c-2.84,1.05-6.36,2.85-8.55,4.76l1.72-4.76-1.72-4.75c2.18,1.9,5.71,3.7,8.55,4.75Z"/></g><g><line x1="502.99" y1="181.06" x2="534.75" y2="181.06" style="fill:none; stroke:#000; stroke-linecap:square; stroke-miterlimit:10;"/><path d="M540.79,181.06c-2.84,1.05-6.36,2.85-8.55,4.76l1.72-4.76-1.72-4.75c2.18,1.9,5.71,3.7,8.55,4.75Z"/></g></g></svg>